<svg xmlns="http://www.w3.org/2000/svg" xmlns:xlink="http://www.w3.org/1999/xlink" id="Layer_1" x="0px" y="0px" viewBox="0 0 273.8 42.3" style="enable-background:new 0 0 273.8 42.3;" xml:space="preserve"><style type="text/css">	.st0{fill:#57A6A2;}	.st1{fill:#FFFFFF;}	.st2{fill:#FFFFCA;}	.st3{fill:#286878;}	.st4{fill:#417D7A;}	.st5{fill:#2D5654;}	.st6{fill:#001B5A;}	.st7{fill:#00257D;}	.st8{fill:#182D4D;}	.st9{fill:#335BB8;}	.st10{fill:#D8E3E2;}	.st11{fill:#232323;}	.st12{fill:#727272;}	.st13{fill:#F4FDFC;}	.st14{fill-rule:evenodd;clip-rule:evenodd;fill:#182D4D;}	.st15{clip-path:url(#SVGID_00000042704301649399903880000010348178904923144112_);}	.st16{clip-path:url(#SVGID_00000057112121004588204830000001736814869914013601_);}	.st17{clip-path:url(#SVGID_00000047753126721730914350000015328113238864788408_);}	.st18{clip-path:url(#SVGID_00000098910314290914236570000006088898064776076675_);}	.st19{clip-path:url(#SVGID_00000044864732358445042950000006593999192941887910_);}	.st20{clip-path:url(#SVGID_00000155841319163720429480000003452957239302735241_);}	.st21{clip-path:url(#SVGID_00000177470317633758829030000010933200362540804759_);}	.st22{clip-path:url(#SVGID_00000100368024746865422440000013706229134829901737_);}	.st23{fill-rule:evenodd;clip-rule:evenodd;}	.st24{fill:#F4F4F4;}	.st25{fill:#C5D477;}	.st26{fill:#2DAB66;}	.st27{fill:#F3F2F3;}	.st28{fill:url(#SVGID_00000036220633405447290400000016802818457984869016_);}	.st29{fill:url(#SVGID_00000013896017131115694830000010847367485984224396_);}	.st30{fill:url(#SVGID_00000039110543111159630440000013668438242063583652_);}	.st31{fill:url(#SVGID_00000099653401663378505700000012241904055353136035_);}	.st32{fill:url(#SVGID_00000078726387445990249080000017685589121023907491_);}	.st33{fill:none;stroke:#417D7A;stroke-width:2;stroke-miterlimit:10;}	.st34{fill:#2D2D2D;}	.st35{fill:url(#SVGID_00000151537652174962227070000005710122101764081563_);}	.st36{fill:url(#SVGID_00000012462965565360532950000010454851140638841775_);}	.st37{fill:url(#SVGID_00000066513781312305411050000004784042537149116336_);}	.st38{fill:url(#SVGID_00000176760390574243120710000012078742220475126920_);}	.st39{fill:url(#SVGID_00000062905987666610852720000017350909347767890586_);}	.st40{fill:#D9D9D9;}	.st41{fill:none;stroke:#009DA8;stroke-width:2;stroke-miterlimit:10;}	.st42{fill:#636363;}	.st43{fill:#3350A3;}	.st44{fill:#009DA8;}	.st45{fill:url(#SVGID_00000044883079703616209800000008431097726913711753_);}	.st46{fill:url(#SVGID_00000168799367100001002380000013060226319786914432_);}	.st47{opacity:0.51;fill:url(#SVGID_00000064337018235686405600000005822534353379989647_);}	.st48{fill:url(#SVGID_00000092455109848042443290000006240634369694661263_);}	.st49{fill:url(#SVGID_00000085239397892830172110000011776136925087746987_);}	.st50{clip-path:url(#SVGID_00000083079475448437262270000009422225769419513773_);fill:#FFFFFF;}	.st51{clip-path:url(#SVGID_00000083079475448437262270000009422225769419513773_);fill:none;}	.st52{fill:none;stroke:#2D5654;stroke-width:2;stroke-miterlimit:10;}	.st53{fill:url(#SVGID_00000067204568327352835900000000414799017652741268_);}	.st54{opacity:0.48;fill:none;stroke:#57A6A2;stroke-width:0.75;stroke-miterlimit:10;}	.st55{fill:url(#SVGID_00000067217846080736915700000011951476551925922740_);}	.st56{fill:url(#SVGID_00000126300554892837744480000000821836287698031003_);}	.st57{fill:url(#SVGID_00000048459049002011059850000018048194397839102850_);}	.st58{fill:url(#SVGID_00000009580016155963539260000013847052249264837815_);}	.st59{fill:url(#SVGID_00000121253728994413937280000007583346770067130537_);}	.st60{fill:url(#SVGID_00000110458205680846020310000004530093563073674682_);}	.st61{fill:url(#SVGID_00000140012379825936981390000013300756997058856862_);}	.st62{fill:none;stroke:#FFFFFF;stroke-width:3;stroke-miterlimit:10;}	.st63{fill:#FFFFFF;stroke:#FFFFFF;stroke-width:0.75;stroke-miterlimit:10;}	.st64{fill:#CDE1F5;stroke:#EFF3F4;stroke-miterlimit:10;}	.st65{fill:#08142D;}	.st66{fill:url(#SVGID_00000076582384317248109760000009132282475449749378_);}	.st67{fill:#040A16;}	.st68{fill:none;stroke:url(#SVGID_00000139258023720146782600000010587399945140506295_);stroke-miterlimit:10;}	.st69{fill:none;stroke:url(#SVGID_00000002379446534173769040000002740689975251919001_);stroke-miterlimit:10;}	.st70{fill:#4EB7BA;}	.st71{fill:#EDEDED;}	.st72{fill:#F9F9F9;}	.st73{fill:url(#SVGID_00000154425260057446097830000000928518914511707294_);}	.st74{fill-rule:evenodd;clip-rule:evenodd;fill:#FFFFFF;}	.st75{fill:url(#SVGID_00000000186449598436464830000005990239626811473547_);}	.st76{fill:url(#SVGID_00000065032542106215695080000014862545190183755194_);}	.st77{fill:url(#SVGID_00000075866553825776172860000012757191387457175181_);}	.st78{fill:url(#SVGID_00000045581039926453163250000008432848446116631222_);}	.st79{fill:url(#SVGID_00000178201899431401602170000001015538299645038208_);}	.st80{clip-path:url(#SVGID_00000000199097260697978190000017554484360350037161_);fill:#FFFFFF;}	.st81{clip-path:url(#SVGID_00000000199097260697978190000017554484360350037161_);fill:none;}	.st82{fill:none;stroke:#6AC7EF;stroke-width:2;stroke-miterlimit:10;}	.st83{fill:#6AC7EF;}	.st84{fill:url(#SVGID_00000008868089975088830540000014356700033726567324_);}	.st85{fill:url(#SVGID_00000086686546703649283210000015260968874538539450_);}	.st86{fill:url(#SVGID_00000168819460798644010500000005238865548964308619_);}	.st87{fill:#060E1C;}	.st88{fill:none;stroke:#08142D;stroke-width:2;stroke-miterlimit:10;}	.st89{fill:#9AC4EB;}	.st90{fill:#93D8FF;}	.st91{fill:#C9ECFF;}	.st92{fill:#E9F7FF;}	.st93{fill:#F1F4F5;}	.st94{opacity:0.1;fill:#FFFFFF;}	.st95{fill:url(#SVGID_00000078746587594192708020000001484464052369075085_);}	.st96{fill:url(#SVGID_00000072274334709598166320000005132811323306813833_);}	.st97{fill:url(#SVGID_00000077300173957614076890000003983923558372375949_);}	.st98{fill:url(#SVGID_00000004520543468311413500000014453111894814538638_);}	.st99{opacity:0.36;fill:none;stroke:#08142D;stroke-width:2;stroke-miterlimit:10;}	.st100{fill:none;stroke:url(#SVGID_00000096754237574399106810000009855305462892111286_);stroke-miterlimit:10;}	.st101{fill:none;stroke:url(#SVGID_00000136393201275727847640000016874679549596990624_);stroke-miterlimit:10;}	.st102{fill:none;stroke:#FFFFFF;stroke-width:2;stroke-linecap:round;stroke-linejoin:round;stroke-miterlimit:10;}	.st103{fill:url(#SVGID_00000060012448864901873730000011760745227035465366_);}	.st104{fill:url(#SVGID_00000113332990578101026090000008962926852054966663_);}	.st105{fill:url(#SVGID_00000129915922710199729040000011490888303218960820_);}	.st106{fill:url(#SVGID_00000087370521661896351420000001971798919673917356_);}	.st107{fill:url(#SVGID_00000111888666345799236590000004969262764408087987_);}	.st108{fill:url(#SVGID_00000032623490015348767530000007486546073195880858_);}	.st109{fill:none;stroke:#636363;stroke-width:1.5;stroke-linecap:round;stroke-linejoin:round;stroke-miterlimit:10;}	.st110{fill:url(#SVGID_00000134959296760820642490000007137632343076348803_);}	.st111{opacity:0.51;fill:url(#SVGID_00000054946149737199550510000000932864455305508540_);}	.st112{fill:url(#SVGID_00000133510164897330215860000007039900146320871561_);}	.st113{fill:url(#SVGID_00000168095201906130231380000008468337252659992452_);}	.st114{clip-path:url(#SVGID_00000051363000210946339250000011160533477564748975_);fill:#FFFFFF;}	.st115{clip-path:url(#SVGID_00000051363000210946339250000011160533477564748975_);fill:none;}	.st116{clip-path:url(#SVGID_00000155864446225944991170000012985766130401954476_);fill:#FFFFFF;}	.st117{clip-path:url(#SVGID_00000155864446225944991170000012985766130401954476_);fill:none;}	.st118{fill:url(#SVGID_00000047769757427291577050000010747697691299400871_);}	.st119{fill:url(#SVGID_00000131348191264715940080000003691264844093117062_);}	.st120{fill:url(#SVGID_00000163066643900992188590000000471915185396997254_);}	.st121{fill:url(#SVGID_00000168826900929981859840000008150803083666429107_);}	.st122{fill:url(#SVGID_00000112600483448519017520000001949349066910776247_);}	.st123{fill:url(#SVGID_00000130630367593221841100000017295389747806216843_);}	.st124{fill:url(#SVGID_00000145060344697003167160000002845365677607379622_);}	.st125{fill:url(#SVGID_00000064345965347221098140000018391447002451250576_);}	.st126{fill:url(#SVGID_00000127026983300428358400000009413394677757157821_);}	.st127{fill:none;stroke:url(#SVGID_00000023263990365920225860000008838340673956613784_);stroke-miterlimit:10;}	.st128{fill:none;stroke:url(#SVGID_00000136405414242525631460000002520222735566188430_);stroke-miterlimit:10;}	.st129{clip-path:url(#SVGID_00000000224332735820629890000001378319485575844001_);fill:#D1E3EB;}	.st130{fill:#76AAC5;}	.st131{fill:#13181B;}	.st132{fill:#D1E3EB;}	.st133{fill:#112245;}	.st134{clip-path:url(#SVGID_00000039840319993815376790000001171119280160644534_);fill:#D1E3EB;}	.st135{clip-path:url(#SVGID_00000064314529403293148670000002350326481086124722_);fill:#76AAC5;}	.st136{clip-path:url(#SVGID_00000030475329336653340680000016671613278467179392_);fill:#D1E3EB;}</style><g>	<g>		<polygon class="st1" points="128.4,3 128.4,11 124,11 121.2,14 121.2,3   "></polygon>		<rect x="121.2" y="18.3" class="st1" width="7.1" height="21"></rect>		<polygon class="st1" points="111.4,3 78.6,39.3 71.3,39.3 71.3,3 78.3,3 78.3,30.5 103.1,3   "></polygon>		<polygon class="st1" points="33.3,13.7 16.4,32.3 37.4,32.3 43.7,39.3 0.8,39.3 33.3,3.3 65.8,39.3 56.4,39.3   "></polygon>		<polygon class="st1" points="116.2,39.3 106.8,39.3 99.1,30.7 103.8,25.5   "></polygon>		<polygon class="st1" points="198.4,3 198.4,39.3 191.3,39.3 191.3,11.9 167.4,38.3 143.5,11.9 143.5,39.3 136.4,39.3 136.4,3    145.1,3 167.4,27.6 189.6,3   "></polygon>	</g>	<g>		<path class="st1" d="M213.2,9.9l1.2,3h0.7l-3.4-8.8h-0.6l-3.4,8.8h0.7l1.2-3H213.2z M213,9.3h-3.3l1.6-4.3L213,9.3z"></path>		<polygon class="st1" points="216.5,10.7 218,9.2 220.5,12.9 220.5,12.9 221.3,12.9 218.5,8.8 221,6.3 220.1,6.3 216.5,9.9    216.5,3.5 215.9,3.5 215.9,12.9 216.5,12.9   "></polygon>		<rect x="222.2" y="6.3" class="st1" width="0.6" height="6.6"></rect>		<rect x="224.6" y="3.5" class="st1" width="0.6" height="9.5"></rect>		<rect x="227" y="3.5" class="st1" width="0.6" height="9.5"></rect>		<rect x="229.4" y="6.3" class="st1" width="0.6" height="6.6"></rect>		<polygon class="st1" points="236.1,9.7 237.8,8 241.3,12.9 241.3,12.9 242.1,12.9 238.2,7.5 241.6,4.1 240.7,4.1 236.1,8.8    236.1,4.1 235.5,4.1 235.5,12.9 236.1,12.9   "></polygon>		<path class="st1" d="M245.3,6.2c-1.8,0-3.3,1.6-3.3,3.5c0,1.9,1.5,3.4,3.4,3.4c1.5,0,2.6-0.8,3.1-2.2l0-0.1h-0.7l0,0.1   c-0.4,1.1-1.2,1.6-2.4,1.6c-1.5,0-2.7-1.2-2.7-2.8h6l0-0.1c0-0.9-0.4-1.8-1-2.5C246.9,6.5,246.1,6.2,245.3,6.2z M245.3,6.8   c1.3,0,2.4,1,2.6,2.3h-5.2C242.9,7.7,244,6.8,245.3,6.8z"></path>		<path class="st1" d="M250.3,9c0-1.2,1-2.2,2.2-2.2c1.3,0,2.1,0.8,2.1,2.2v4h0.6V9c0-1.7-1-2.8-2.7-2.8c-0.9,0-1.7,0.4-2.3,1.1V6.3   h-0.6v6.6h0.6V9z"></path>		<path class="st1" d="M256.9,10.6c0,0.8,0.2,1.4,0.7,1.8c0.3,0.3,0.8,0.5,1.4,0.5c0.1,0,0.2,0,0.3,0l0.1,0v-0.6l-0.1,0   c-0.5,0-0.9-0.1-1.2-0.4c-0.3-0.3-0.5-0.7-0.5-1.4V6.9h1.7V6.3h-1.7V4.9h-0.6v1.4H256v0.6h0.9V10.6z"></path>		<rect x="260.4" y="3.5" class="st1" width="0.6" height="9.5"></rect>		<path class="st1" d="M265.4,6.2c-1.8,0-3.3,1.6-3.3,3.5c0,1.9,1.5,3.4,3.4,3.4c1.5,0,2.6-0.8,3.1-2.2l0-0.1H268l0,0.1   c-0.4,1.1-1.2,1.6-2.4,1.6c-1.5,0-2.7-1.2-2.7-2.8h6l0-0.1c0-0.9-0.4-1.8-1-2.5C267.1,6.5,266.3,6.2,265.4,6.2z M265.4,6.8   c1.3,0,2.4,1,2.6,2.3h-5.2C263.1,7.7,264.1,6.8,265.4,6.8z"></path>		<path class="st1" d="M273,6.2c-0.9-0.1-1.7,0.1-2.3,0.7c-0.1,0.1-0.2,0.2-0.3,0.3V6.3h-0.6v6.6h0.6V9c0-0.7,0.3-1.3,0.7-1.7   c0.4-0.4,1.1-0.6,1.8-0.5l0.1,0L273,6.2L273,6.2z"></path>		<rect x="208.7" y="15.1" class="st1" width="0.7" height="1"></rect>		<rect x="208.7" y="16.9" class="st1" width="0.6" height="8.8"></rect>		<path class="st1" d="M216.7,25.8v-4c0-1.7-1-2.8-2.7-2.8c-0.9,0-1.7,0.4-2.3,1.1v-0.9h-0.6v6.6h0.6v-4c0-1.2,1-2.2,2.2-2.2   c1.3,0,2.1,0.8,2.1,2.2v4H216.7z"></path>		<path class="st1" d="M221.1,25.9c1.8,0,3.3-1.5,3.3-3.4c0-1.9-1.5-3.5-3.3-3.5c-1.8,0-3.3,1.6-3.3,3.5   C217.8,24.4,219.3,25.9,221.1,25.9z M221.1,19.6c1.5,0,2.7,1.3,2.7,2.9c0,1.6-1.2,2.8-2.7,2.8c-1.5,0-2.7-1.3-2.7-2.8   C218.4,20.9,219.6,19.6,221.1,19.6z"></path>		<polygon class="st1" points="227.6,25.8 230.2,19.2 229.5,19.2 227.3,24.9 225.1,19.2 224.5,19.2 227,25.8   "></polygon>		<path class="st1" d="M233.1,22c-1.4,0.1-2.8,0.5-2.8,2c0,1.3,1.3,1.9,2.4,1.9c1.2,0,2.1-0.4,2.7-1c0,0.3,0.1,0.6,0.2,0.9l0,0h0.6   l0-0.1c-0.1-0.2-0.2-0.7-0.2-1V21c0-1.3-1-2-2.6-2c-1.5,0-2.5,0.7-2.8,1.9l0,0.1h0.6l0-0.1c0.3-0.9,1-1.3,2.2-1.3   c0.9,0,2,0.2,2,1.4C235.4,21.7,234.4,21.9,233.1,22z M232.7,25.3c-0.6,0-1.8-0.3-1.8-1.3c0-0.9,0.6-1.3,2.2-1.4   c0.8-0.1,1.7-0.1,2.2-0.5v1.3C235.4,24.7,234,25.3,232.7,25.3z"></path>		<path class="st1" d="M239.9,19.6c1.1,0,1.8,0.5,2.1,1.3l0,0.1h0.6l0-0.1c-0.3-1.2-1.2-1.9-2.7-1.9c-1.7,0-2.5,0.9-2.5,1.8   c0,1.3,1.4,1.5,2.5,1.7l0,0c1.5,0.2,2.2,0.6,2.2,1.3c0,0.3-0.1,0.6-0.3,0.8c-0.4,0.4-1,0.6-1.7,0.6c-1.4,0-2.2-0.5-2.4-1.5l0-0.1   H237l0,0.1c0.2,1.3,1.4,2.1,3.1,2.1c0.9,0,1.7-0.3,2.2-0.8l0,0c0.3-0.3,0.5-0.8,0.5-1.3c-0.1-1.3-1.3-1.7-2.7-1.9   c-1.6-0.2-2-0.5-2-1.1c0-0.3,0.1-0.5,0.3-0.7C238.6,19.8,239.2,19.6,239.9,19.6z"></path>		<path class="st1" d="M245.7,24.8l-2.1-5.6h-0.7l2.5,6.5l-0.3,0.8c-0.4,0.9-1,1.3-2,1.2l-0.1,0v0.6l0.1,0c0.2,0,0.4,0.1,0.5,0.1   c1,0,1.7-0.5,2.1-1.6l2.8-7.5h-0.7L245.7,24.8z"></path>		<path class="st1" d="M252.1,19c-1.8,0-3.3,1.6-3.3,3.5c0,1.9,1.5,3.4,3.3,3.4c1.8,0,3.3-1.5,3.3-3.4C255.4,20.6,253.9,19,252.1,19   z M252.1,25.3c-1.5,0-2.7-1.3-2.7-2.8c0-1.6,1.2-2.9,2.7-2.9s2.7,1.3,2.7,2.9C254.7,24.1,253.5,25.3,252.1,25.3z"></path>		<path class="st1" d="M259.3,19c-0.9,0-1.7,0.4-2.3,1.1v-0.9h-0.6v6.6h0.6v-4c0-1.2,1-2.2,2.2-2.2c1.3,0,2.1,0.8,2.1,2.2v4h0.6v-4   C262,20.1,261,19,259.3,19z"></path>		<polygon class="st1" points="212.8,37.8 209.3,29.8 209.3,29.8 208.7,29.8 208.7,38.6 209.3,38.6 209.3,31.3 212.5,38.6    213.1,38.6 216.3,31.3 216.3,38.6 217,38.6 217,29.8 216.3,29.8   "></polygon>		<path class="st1" d="M221.5,31.9c-1.8,0-3.3,1.6-3.3,3.5c0,1.9,1.5,3.4,3.4,3.4c1.5,0,2.6-0.8,3.1-2.2l0-0.1H224l0,0.1   c-0.4,1.1-1.2,1.6-2.4,1.6c-1.5,0-2.7-1.2-2.7-2.8h6l0-0.1c0-0.9-0.4-1.8-1-2.5C223.1,32.2,222.3,31.9,221.5,31.9z M221.5,32.5   c1.3,0,2.4,1,2.6,2.3h-5.2C219.1,33.5,220.2,32.5,221.5,32.5z"></path>		<path class="st1" d="M226.8,32.6c-0.1,0.1-0.2,0.2-0.3,0.3V32h-0.6v6.6h0.6v-4c0-0.7,0.3-1.3,0.7-1.7c0.4-0.4,1.1-0.6,1.8-0.5   l0.1,0v-0.6l-0.1,0C228.2,31.8,227.4,32,226.8,32.6z"></path>		<polygon class="st1" points="235.1,32 234.3,32 230.6,35.6 230.6,29.2 230,29.2 230,38.6 230.6,38.6 230.6,36.4 232.2,34.9    234.7,38.6 235.4,38.6 232.6,34.5   "></polygon>		<path class="st1" d="M238.6,31.9c-1.8,0-3.3,1.6-3.3,3.5c0,1.9,1.5,3.4,3.4,3.4c1.5,0,2.6-0.8,3.1-2.2l0-0.1h-0.7l0,0.1   c-0.4,1.1-1.2,1.6-2.4,1.6c-1.5,0-2.7-1.2-2.7-2.8h6l0-0.1c0-0.9-0.4-1.8-1-2.5C240.3,32.2,239.5,31.9,238.6,31.9z M238.6,32.5   c1.3,0,2.4,1,2.6,2.3H236C236.3,33.5,237.4,32.5,238.6,32.5z"></path>		<polygon class="st1" points="247.5,32.6 247.5,32.6 247.5,32 242.4,32 242.4,32.7 246.7,32.7 242.3,38.1 242.2,38.1 242.2,38.6    247.7,38.6 247.7,38 243.1,38   "></polygon>		<rect x="248.6" y="32" class="st1" width="0.6" height="6.6"></rect>		<rect x="248.6" y="29.8" class="st1" width="0.6" height="1.3"></rect>	</g></g></svg>